<svg width="16" height="16" viewBox="0 0 16 16" fill="none" xmlns="http://www.w3.org/2000/svg">
<path fill-rule="evenodd" clip-rule="evenodd" d="M1.33334 4.24218C1.33334 2.74839 2.54431 1.53742 4.03811 1.53742H11.9619C13.4557 1.53742 14.6667 2.74839 14.6667 4.24218V12.166C14.6667 13.6598 13.4557 14.8708 11.9619 14.8708H4.03811C2.54431 14.8708 1.33334 13.6598 1.33334 12.166V4.24218ZM4.03811 2.68028C3.17549 2.68028 2.4762 3.37957 2.4762 4.24218V12.166C2.4762 13.0286 3.17549 13.7279 4.03811 13.7279H11.9619C12.8245 13.7279 13.5238 13.0286 13.5238 12.166V4.24218C13.5238 3.37957 12.8245 2.68028 11.9619 2.68028H4.03811Z" fill="#999999"/>
<path fill-rule="evenodd" clip-rule="evenodd" d="M5.3879 0.666668C5.70349 0.666668 5.95932 0.922505 5.95932 1.2381V2.97959C5.95932 3.29518 5.70349 3.55102 5.3879 3.55102C5.0723 3.55102 4.81647 3.29518 4.81647 2.97959V1.2381C4.81647 0.922505 5.0723 0.666668 5.3879 0.666668Z" fill="#999999"/>
<path fill-rule="evenodd" clip-rule="evenodd" d="M10.6122 0.666668C10.9278 0.666668 11.1837 0.922505 11.1837 1.2381V2.97959C11.1837 3.29518 10.9278 3.55102 10.6122 3.55102C10.2966 3.55102 10.0408 3.29518 10.0408 2.97959V1.2381C10.0408 0.922505 10.2966 0.666668 10.6122 0.666668Z" fill="#999999"/>
<path fill-rule="evenodd" clip-rule="evenodd" d="M2.4762 7.33337C2.4762 9.66273 4.36453 11.5511 6.69389 11.5511H13.6599C13.9755 11.5511 14.2313 11.8069 14.2313 12.1225C14.2313 12.4381 13.9755 12.6939 13.6599 12.6939H6.69389C3.73335 12.6939 1.33334 10.2939 1.33334 7.33337H2.4762Z" fill="#999999"/>
<path fill-rule="evenodd" clip-rule="evenodd" d="M4.38077 5.86399C4.38077 5.5484 4.63661 5.29257 4.9522 5.29257H5.33315C5.64874 5.29257 5.90458 5.5484 5.90458 5.86399C5.90458 6.17959 5.64874 6.43542 5.33315 6.43542H4.9522C4.63661 6.43542 4.38077 6.17959 4.38077 5.86399Z" fill="#999999"/>
<path fill-rule="evenodd" clip-rule="evenodd" d="M7.42877 5.86399C7.42877 5.5484 7.68461 5.29257 8.0002 5.29257H8.38115C8.69674 5.29257 8.95258 5.5484 8.95258 5.86399C8.95258 6.17959 8.69674 6.43542 8.38115 6.43542H8.0002C7.68461 6.43542 7.42877 6.17959 7.42877 5.86399Z" fill="#999999"/>
<path fill-rule="evenodd" clip-rule="evenodd" d="M10.4764 5.86399C10.4764 5.5484 10.7322 5.29257 11.0478 5.29257H11.4288C11.7444 5.29257 12.0002 5.5484 12.0002 5.86399C12.0002 6.17959 11.7444 6.43542 11.4288 6.43542H11.0478C10.7322 6.43542 10.4764 6.17959 10.4764 5.86399Z" fill="#999999"/>
<path fill-rule="evenodd" clip-rule="evenodd" d="M4.38077 8.91156C4.38077 8.59597 4.63661 8.34014 4.9522 8.34014H5.33315C5.64874 8.34014 5.90458 8.59597 5.90458 8.91156C5.90458 9.22716 5.64874 9.48299 5.33315 9.48299H4.9522C4.63661 9.48299 4.38077 9.22716 4.38077 8.91156Z" fill="#999999"/>
<path fill-rule="evenodd" clip-rule="evenodd" d="M7.42877 8.91156C7.42877 8.59597 7.68461 8.34014 8.0002 8.34014H8.38115C8.69674 8.34014 8.95258 8.59597 8.95258 8.91156C8.95258 9.22716 8.69674 9.48299 8.38115 9.48299H8.0002C7.68461 9.48299 7.42877 9.22716 7.42877 8.91156Z" fill="#999999"/>
<path fill-rule="evenodd" clip-rule="evenodd" d="M10.4764 8.91156C10.4764 8.59597 10.7322 8.34014 11.0478 8.34014H11.4288C11.7444 8.34014 12.0002 8.59597 12.0002 8.91156C12.0002 9.22716 11.7444 9.48299 11.4288 9.48299H11.0478C10.7322 9.48299 10.4764 9.22716 10.4764 8.91156Z" fill="#999999"/>
</svg>
