<svg width="15" height="15" viewBox="0 0 15 15" fill="none" xmlns="http://www.w3.org/2000/svg">
<path d="M7.49997 1.25C6.28777 1.2523 5.1024 1.60707 4.08824 2.27109C3.07408 2.9351 2.2749 3.87971 1.78806 4.98986C1.30121 6.1 1.1477 7.32776 1.34624 8.5236C1.54477 9.71943 2.08677 10.8317 2.90622 11.725C3.49148 12.3594 4.20181 12.8657 4.99243 13.212C5.78305 13.5583 6.63683 13.7371 7.49997 13.7371C8.36311 13.7371 9.21689 13.5583 10.0075 13.212C10.7981 12.8657 11.5085 12.3594 12.0937 11.725C12.9132 10.8317 13.4552 9.71943 13.6537 8.5236C13.8522 7.32776 13.6987 6.1 13.2119 4.98986C12.725 3.87971 11.9259 2.9351 10.9117 2.27109C9.89754 1.60707 8.71217 1.2523 7.49997 1.25ZM7.49997 12.5C6.20526 12.498 4.96179 11.9939 4.03122 11.0938C4.31375 10.406 4.79437 9.81769 5.412 9.40368C6.02964 8.98967 6.75641 8.76863 7.49997 8.76863C8.24353 8.76863 8.9703 8.98967 9.58794 9.40368C10.2056 9.81769 10.6862 10.406 10.9687 11.0938C10.0381 11.9939 8.79468 12.498 7.49997 12.5ZM6.24997 6.25C6.24997 6.00277 6.32328 5.7611 6.46063 5.55554C6.59798 5.34998 6.79321 5.18976 7.02162 5.09515C7.25002 5.00054 7.50136 4.97579 7.74383 5.02402C7.98631 5.07225 8.20904 5.1913 8.38385 5.36612C8.55867 5.54093 8.67772 5.76366 8.72595 6.00614C8.77418 6.24861 8.74943 6.49995 8.65482 6.72835C8.56021 6.95676 8.39999 7.15199 8.19443 7.28934C7.98887 7.42669 7.7472 7.5 7.49997 7.5C7.16845 7.5 6.85051 7.3683 6.61609 7.13388C6.38167 6.89946 6.24997 6.58152 6.24997 6.25ZM11.8187 10C11.2603 9.04485 10.4008 8.30189 9.37497 7.8875C9.6932 7.52666 9.90055 7.08166 9.97214 6.6059C10.0437 6.13014 9.97651 5.64382 9.77856 5.20531C9.58061 4.7668 9.26034 4.39472 8.85616 4.13373C8.45199 3.87273 7.98109 3.73391 7.49997 3.73391C7.01885 3.73391 6.54795 3.87273 6.14378 4.13373C5.7396 4.39472 5.41933 4.7668 5.22138 5.20531C5.02342 5.64382 4.95621 6.13014 5.0278 6.6059C5.09939 7.08166 5.30674 7.52666 5.62497 7.8875C4.59909 8.30189 3.73964 9.04485 3.18122 10C2.73618 9.24194 2.50104 8.37904 2.49997 7.5C2.49997 6.17392 3.02675 4.90215 3.96444 3.96447C4.90212 3.02678 6.17389 2.5 7.49997 2.5C8.82605 2.5 10.0978 3.02678 11.0355 3.96447C11.9732 4.90215 12.5 6.17392 12.5 7.5C12.4989 8.37904 12.2638 9.24194 11.8187 10Z" fill="#3DBD78"/>
</svg>
